<svg xmlns="http://www.w3.org/2000/svg" xmlns:xlink="http://www.w3.org/1999/xlink" viewBox="0 0 500 500" width="500" height="500" preserveAspectRatio="xMidYMid meet" style="width: 100%; height: 100%; transform: translate3d(0px, 0px, 0px); content-visibility: visible;"><defs><clipPath id="__lottie_element_5920"><rect width="500" height="500" x="0" y="0"></rect></clipPath></defs><g clip-path="url(#__lottie_element_5920)"><g transform="matrix(1,0,0,1,183.1090087890625,243.47061157226562)" opacity="1" style="display: block;"><g opacity="1" transform="matrix(1,0,0,1,0,0)"><path stroke-linecap="round" stroke-linejoin="miter" fill-opacity="0" stroke-miterlimit="4" stroke="rgb(17,24,39)" stroke-opacity="1" stroke-width="37.281" d=" M-57.777000427246094,111.84400177001953 C-56.632999420166016,111.84400177001953 -55.922000885009766,111.84400177001953 -55.922000885009766,111.84400177001953 M18.641000747680664,111.84400177001953 C18.641000747680664,111.84400177001953 74.56199645996094,111.84400177001953 74.56199645996094,111.84400177001953 C84.85199737548828,111.84400177001953 93.2030029296875,103.49299621582031 93.2030029296875,93.2030029296875 C93.2030029296875,93.2030029296875 93.2030029296875,-93.2030029296875 93.2030029296875,-93.2030029296875 C93.2030029296875,-103.49299621582031 84.85199737548828,-111.84400177001953 74.56199645996094,-111.84400177001953 C74.56199645996094,-111.84400177001953 -74.56199645996094,-111.84400177001953 -74.56199645996094,-111.84400177001953 C-84.85199737548828,-111.84400177001953 -93.2030029296875,-103.49299621582031 -93.2030029296875,-93.2030029296875 C-93.2030029296875,-93.2030029296875 -93.2030029296875,93.2030029296875 -93.2030029296875,93.2030029296875 C-93.2030029296875,103.49299621582031 -84.85199737548828,111.84400177001953 -74.56199645996094,111.84400177001953 C-74.56199645996094,111.84400177001953 -65.1520004272461,111.84400177001953 -59.70399856567383,111.84400177001953"></path></g></g><g transform="matrix(1,0,0,1,350.875,262.1106262207031)" opacity="1" style="display: block;"><g opacity="1" transform="matrix(1,0,0,1,0,0)"><path stroke-linecap="round" stroke-linejoin="miter" fill-opacity="0" stroke-miterlimit="4" stroke="rgb(17,24,39)" stroke-opacity="1" stroke-width="37.281" d=" M-37.28099822998047,93.2030029296875 C-37.28099822998047,93.2030029296875 -55.922000885009766,93.2030029296875 -55.922000885009766,93.2030029296875 C-66.21199798583984,93.2030029296875 -74.56199645996094,84.85199737548828 -74.56199645996094,74.56199645996094 C-74.56199645996094,74.56199645996094 -74.56199645996094,-74.56199645996094 -74.56199645996094,-74.56199645996094 C-74.56199645996094,-84.85199737548828 -66.21199798583984,-93.2030029296875 -55.922000885009766,-93.2030029296875 C-55.922000885009766,-93.2030029296875 -7.7170000076293945,-93.2030029296875 -7.7170000076293945,-93.2030029296875 C-2.7769999504089355,-93.2030029296875 1.9570000171661377,-91.24600219726562 5.461999893188477,-87.74099731445312 C5.461999893188477,-87.74099731445312 69.10099792480469,-24.10300064086914 69.10099792480469,-24.10300064086914 C72.60600280761719,-20.597999572753906 74.56199645996094,-15.86299991607666 74.56199645996094,-10.92300033569336 C74.56199645996094,-10.92300033569336 74.56199645996094,74.56199645996094 74.56199645996094,74.56199645996094 C74.56199645996094,84.85199737548828 66.21199798583984,93.2030029296875 55.922000885009766,93.2030029296875 C55.922000885009766,93.2030029296875 43.06100082397461,93.2030029296875 38.70399856567383,93.2030029296875"></path></g></g><g transform="matrix(1,0,0,1,164.468994140625,355.3135986328125)" opacity="1" style="display: block;"><g opacity="1" transform="matrix(1,0,0,1,0,0)"><path stroke-linecap="round" stroke-linejoin="miter" fill-opacity="0" stroke-miterlimit="4" stroke="rgb(17,24,39)" stroke-opacity="1" stroke-width="37.281" d=" M37.28099822998047,0 C37.28099822998047,-20.597999572753906 20.597999572753906,-37.28099822998047 0,-37.28099822998047 C-20.597999572753906,-37.28099822998047 -37.28099822998047,-20.597999572753906 -37.28099822998047,0 C-37.28099822998047,20.597999572753906 -20.597999572753906,37.28099822998047 0,37.28099822998047 C20.597999572753906,37.28099822998047 37.28099822998047,20.597999572753906 37.28099822998047,0z"></path></g></g><g transform="matrix(1,0,0,1,350.875,355.3135986328125)" opacity="1" style="display: block;"><g opacity="1" transform="matrix(1,0,0,1,0,0)"><path stroke-linecap="round" stroke-linejoin="miter" fill-opacity="0" stroke-miterlimit="4" stroke="rgb(17,24,39)" stroke-opacity="1" stroke-width="37.281" d=" M37.28099822998047,0 C37.28099822998047,-20.597999572753906 20.597999572753906,-37.28099822998047 0,-37.28099822998047 C-20.597999572753906,-37.28099822998047 -37.28099822998047,-20.597999572753906 -37.28099822998047,0 C-37.28099822998047,20.597999572753906 -20.597999572753906,37.28099822998047 0,37.28099822998047 C20.597999572753906,37.28099822998047 37.28099822998047,20.597999572753906 37.28099822998047,0z"></path></g></g><g transform="matrix(0.8573809266090393,0,0,1,235.84271240234375,238.93499755859375)" opacity="0.8" style="display: block;"><g opacity="1" transform="matrix(1,0,0,0.2735599875450134,13.24899959564209,177.9949951171875)"><path fill="rgb(17,24,39)" fill-opacity="1" d=" M0,-16.704999923706055 C112.85968780517578,-16.704999923706055 204.4929962158203,-9.219489097595215 204.4929962158203,0 C204.4929962158203,9.219489097595215 112.85968780517578,16.704999923706055 0,16.704999923706055 C-112.85968780517578,16.704999923706055 -204.4929962158203,9.219489097595215 -204.4929962158203,0 C-204.4929962158203,-9.219489097595215 -112.85968780517578,-16.704999923706055 0,-16.704999923706055z"></path></g></g><g transform="matrix(1,0,0,1,250,250)" opacity="1" style="display: block;"><g opacity="1" transform="matrix(1,0,0,1,0,0)"><path stroke-linecap="round" stroke-linejoin="miter" fill-opacity="0" stroke-miterlimit="4" stroke="rgb(17,24,39)" stroke-opacity="1" stroke-width="2" d=" M-118.1520004272461,78.34100341796875 C-195.95700073242188,78.34100341796875 -254.60800170898438,78.34100341796875 -254.60800170898438,78.34100341796875 M262.6730041503906,78.34100341796875 C262.6730041503906,78.34100341796875 108.46399688720703,78.34100341796875 -31.558000564575195,78.34100341796875"></path></g></g><g transform="matrix(1,0,0,1,232.718994140625,88.70999145507812)" opacity="1" style="display: block;"><g opacity="1" transform="matrix(1,0,0,1,0,0)"><path stroke-linecap="round" stroke-linejoin="miter" fill-opacity="0" stroke-miterlimit="4" stroke="rgb(17,24,39)" stroke-opacity="1" stroke-width="2" d=" M197.7550048828125,78.34100341796875 C155.9669952392578,78.34100341796875 98.37799835205078,78.34100341796875 38.277000427246094,78.34100341796875"></path></g></g><g transform="matrix(1,0,0,1,243.0880126953125,179.7239990234375)" opacity="1" style="display: none;"><g opacity="1" transform="matrix(1,0,0,1,0,0)"><path stroke-linecap="round" stroke-linejoin="miter" fill-opacity="0" stroke-miterlimit="4" stroke="rgb(17,24,39)" stroke-opacity="1" stroke-width="2" d="M0 0"></path></g></g><g transform="matrix(1,0,0,1,250,250)" opacity="1" style="display: none;"><g opacity="1" transform="matrix(1,0,0,1,0,0)"><path stroke-linecap="round" stroke-linejoin="miter" fill-opacity="0" stroke-miterlimit="4" stroke="rgb(17,24,39)" stroke-opacity="1" stroke-width="2" d="M0 0"></path></g></g><g transform="matrix(1,0,0,1,232.718994140625,88.70999145507812)" opacity="1" style="display: none;"><g opacity="1" transform="matrix(1,0,0,1,0,0)"><path stroke-linecap="round" stroke-linejoin="miter" fill-opacity="0" stroke-miterlimit="4" stroke="rgb(17,24,39)" stroke-opacity="1" stroke-width="2" d="M0 0"></path></g></g><g transform="matrix(1,0,0,1,243.0880126953125,179.7239990234375)" opacity="1" style="display: none;"><g opacity="1" transform="matrix(1,0,0,1,0,0)"><path stroke-linecap="round" stroke-linejoin="miter" fill-opacity="0" stroke-miterlimit="4" stroke="rgb(17,24,39)" stroke-opacity="1" stroke-width="2" d="M0 0"></path></g></g></g></svg>